<svg xmlns="http://www.w3.org/2000/svg" viewBox="0 0 24 24"><path d="M10.08 10.86c.05-.33.16-.62.3-.86.3-.56.81-.85 1.5-.86.45 0 .86.2 1.15.49.28.31.47.74.47 1.17h1.8a3.3 3.3 0 0 0-.3-1.3 2.74 2.74 0 0 0-.68-1c-1.45-1.34-4.14-1.15-5.37.37a5.51 5.51 0 0 0-.01 6.26 3.86 3.86 0 0 0 5.3.37c.31-.25.56-.56.76-.92a3 3 0 0 0 .28-1.15H13.5c0 .21-.07.4-.16.57-.09.19-.21.34-.34.47-.33.26-.72.4-1.14.4a1.7 1.7 0 0 1-.89-.23 1.4 1.4 0 0 1-.59-.64c-.5-.9-.42-2.15-.3-3.14M12 2C6.5 2 2 6.5 2 12c.53 13.27 19.5 13.26 20 0 0-5.5-4.5-10-10-10m0 18c-4.41 0-8-3.59-8-8 .44-10.61 15.56-10.61 16 0 0 4.41-3.59 8-8 8Z"/></svg>