<svg xmlns="http://www.w3.org/2000/svg" xml:space="preserve" viewBox="0 0 24 24"><path d="M12.5 0H12C7.8.4 8.9 4.8 8.9 6.3c0 1.1-.4 2.1-1.1 3-1.6 2-3.3 4.4-3 7l-.1.1c-.3.3-.5.6-.7.8-.2.2-.5.3-.8.4-.3.1-.7.3-.9.7-.2.3-.2.8-.1 1.1.1.4.1.7 0 1-.2.7-.3 1.1-.1 1.5.2.3.5.5.9.6.8.2 1.9.1 2.8.6.9.5 1.9.7 2.6.5.5-.1 1-.5 1.2-1 .6 0 1.2-.3 2.3-.3.7-.1 1.6.3 2.6.2 0 .1.1.2.1.3.4.8 1.1 1.1 1.9 1.1.9-.1 1.7-.6 2.3-1.3.8-1.1 2.8-1.1 3-2.4 0-.4-.2-.8-.7-1.4v-.1c-.4-.5-.3-1.5-.8-2 0 0-.1-.1-.2-.1s-.1-.1-.2-.1c.9-2.6-.7-5.2-2.3-7.2-.8-1-1.6-2-1.6-3.4.1-1.9.3-5.9-3.5-5.9zm.6 3.4c1.2 0 1.5 1.7.8 2.5-.2-.1-.4-.2-.6-.2 1-1.2-1-2.3-.8-.3l-.6-.2c-.2-.8.3-1.9 1.2-1.8zm-3 .1c.8 0 1 1 .9 1.6-.2 0-.3.2-.5.2.1-1.8-1.4-.5-.5.4-.1.1-.2.2-.3.2-.6-.6-.6-2.2.4-2.4zm1.3 1.7c.7-.1 1.4.6 2.3.9.3.1.4.3.5.4v-.2c.2.6-.4 1-1 1.3-.6.3-1 .8-1.8.7-.2 0-.3 0-.4-.1-.1-.1-.2-.1-.3-.2-.3 0-.5-.2-.7-.4-.4-.2-.6-.5-.7-.7-.2-.5.4-.7.7-.9l.2-.1c.2-.4.7-.8 1.2-.7zm2.8 2.1c.4 1.4 1.2 3.5 1.7 4.5.3.5.9 1.7 1.1 3 .1 0 .3 0 .5.1.6-1.7-.5-3.5-1.1-4-.2-.2-.2-.3-.1-.3 1.2 1.1 2 2.8 1.7 4.4.1 0 .1.1.2.1 1 .5 1.4.9 1.2 1.5h-.2c.4-1-2.9-2.3-2.9-.6h-.1a2 2 0 0 0-.8 1.2c-.1.6-.2 1.2-.2 1.9 0 .3-.2.8-.3 1.4-1.5 1.1-3.6 1.5-5.4.3-.1-.2-.2-.4-.4-.5 0-.2-.1-.3-.2-.4.2 0 .3 0 .5-.1.1-.1.3-.2.3-.3.1-.3 0-.7-.3-1.2-.4-.5-.9-1-1.8-1.5-1.2-.7-1.4-1.9-1.2-3 .3-1 .7-1.9 1.3-2.8.1-.1 0 .1-.4 1-.4.8-1.1 2.5-.1 3.9 0-1 .3-2 .6-2.9.6-1.3 1.8-3.5 1.8-5.3l.3.2c.2.1.4.3.6.5.2.2.5.3.9.3h.1c.4 0 .7-.1 1-.3.3-.1.5-.3.7-.4.5-.1.8-.4 1-.7zm2.2 9c0 1.7 1.8 1.7 2.7.6.8-.1 1.3.3 1.5 1.1 0 .9 1.1 1.6 1 2.2-.4 1.1-2.1 1-3 2.2-.8 1.1-2.9 1.9-3.6.3-.4-.9.5-2.6.5-3.6.2-1.1 0-2.3.9-2.8zm-10.8 0c1-.1 1.7 1.7 2.1 2.4 4.8 6.2-.5 4.2-4.4 3.4-1.6-.1-.3-1.6-.7-2.7-.4-1.4.8-1.4 1.6-1.9.5-.4.7-1.1 1.4-1.2zm7.2-9.1c-.4.2-.9.5-1.5.5-.5 0-1-.3-1.3-.5-.1 0-.7-.4-.4-.5.1 0 .1.1.2.2.1 0 .2.1.3.3.3.2.7.5 1.2.5s1-.3 1.5-.5l.6-.5c.1-.1.1-.3.3-.3.1 0 0 .1-.1.3-.4.2-.6.4-.8.5zm-1.1-1.5c0-.1 0-.1 0 0 .1-.1.2-.1.3-.1.1 0 .2.1.1.1 0 .1-.2.1-.3 0h-.1zm-.6 0c-.1 0-.2.1-.3.1-.4-.1.1-.3.3-.2v.1c0-.1 0 0 0 0z"/></svg>