<svg viewBox="0 0 24 24" xmlns="http://www.w3.org/2000/svg"><path d="M12.5 0c-.15 0-.31 0-.48.02-4.22.33-3.1 4.8-3.17 6.3A5.4 5.4 0 0 1 7.8 9.34a14.9 14.9 0 0 0-2.71 4.52 5.37 5.37 0 0 0-.29 2.49.42.42 0 0 0-.1.13c-.27.27-.46.6-.67.84-.2.2-.49.27-.8.4-.31.14-.66.27-.86.68-.1.2-.14.4-.14.6 0 .2.03.4.06.54.06.4.12.73.04.97-.25.68-.28 1.15-.1 1.48.17.34.53.47.93.6.81.2 1.91.14 2.78.6.92.47 1.86.68 2.61.48.53-.12.97-.47 1.21-.95.59 0 1.23-.27 2.26-.33.7-.06 1.58.26 2.58.2.02.13.06.2.11.33.4.78 1.12 1.13 1.89 1.07a3.5 3.5 0 0 0 2.26-1.3c.63-.77 1.68-1.09 2.38-1.5.34-.2.62-.48.64-.86.03-.4-.2-.81-.71-1.38v-.1c-.17-.2-.25-.53-.34-.92-.09-.4-.18-.79-.5-1.05-.05-.05-.12-.06-.18-.13a.36.36 0 0 0-.2-.07 5.38 5.38 0 0 0-.17-3.69 12.53 12.53 0 0 0-2.17-3.48c-.8-1-1.58-1.96-1.56-3.37.02-2.15.23-6.13-3.55-6.14zm.53 3.4h.02c.2 0 .4.07.58.2.19.14.33.33.44.54.1.26.16.46.16.72l.01-.06v.1a.09.09 0 0 1 0-.02v-.02a1.8 1.8 0 0 1-.16.7.95.95 0 0 1-.21.34.71.71 0 0 0-.09-.04c-.1-.05-.2-.06-.28-.13a1.31 1.31 0 0 0-.22-.07c.05-.06.14-.13.18-.2.05-.13.08-.26.09-.4v-.02a1.21 1.21 0 0 0-.06-.4c-.05-.13-.1-.2-.19-.33-.08-.07-.16-.13-.26-.13h-.02c-.1 0-.17.03-.26.13a.8.8 0 0 0-.2.33 1.18 1.18 0 0 0-.1.4v.02l.02.27-.6-.2a1.64 1.64 0 0 1-.02-.2V4.9a1.77 1.77 0 0 1 .15-.77c.08-.22.23-.4.43-.54a.98.98 0 0 1 .6-.2zm-2.96.06h.04a.7.7 0 0 1 .4.14c.14.13.26.29.34.46.09.2.14.4.15.67V5.08l-.08.02c-.15.06-.28.14-.4.2.02-.09.02-.18 0-.26v-.02c0-.13-.03-.2-.07-.33a.61.61 0 0 0-.17-.27.25.25 0 0 0-.18-.06h-.02c-.08 0-.13.04-.19.13a.55.55 0 0 0-.12.27.94.94 0 0 0-.02.33v.02c0 .13.03.2.08.33.04.13.1.2.16.27l.04.02c-.07.06-.12.07-.18.14a.3.3 0 0 1-.13.07 2.62 2.62 0 0 1-.28-.4 1.77 1.77 0 0 1-.15-.67 1.76 1.76 0 0 1 .08-.67 1.43 1.43 0 0 1 .28-.54c.13-.13.26-.2.42-.2zm1.37 1.71c.33 0 .73.07 1.22.4.29.2.52.27 1.05.47.26.13.4.26.48.4V6.3a.57.57 0 0 1 .02.47c-.13.31-.52.65-1.07.85-.27.13-.5.33-.77.46-.28.14-.59.3-1.01.27a1.14 1.14 0 0 1-.45-.07 3.57 3.57 0 0 1-.32-.2c-.2-.13-.37-.33-.62-.46-.4-.25-.62-.52-.69-.71-.07-.27 0-.47.2-.6.22-.14.38-.28.48-.34l.17-.13c.18-.2.44-.47.85-.6.13-.04.29-.07.46-.07zm2.8 2.14c.36 1.42 1.2 3.48 1.74 4.47.28.54.85 1.66 1.1 3.03.15 0 .33.02.51.06.65-1.67-.54-3.46-1.09-3.96-.22-.2-.23-.34-.12-.34a5.8 5.8 0 0 1 1.65 2.76c.13.53.16 1.1.02 1.67.06.03.13.06.2.07 1.03.53 1.41.93 1.23 1.53v-.04h-.19c.15-.47-.19-.82-1.07-1.22-.91-.4-1.65-.34-1.77.46l-.02.14-.2.06c-.44.27-.67.67-.8 1.19a10.3 10.3 0 0 0-.2 1.87c-.02.33-.17.84-.32 1.35-1.5 1.07-3.58 1.54-5.35.33a2.65 2.65 0 0 0-.4-.53 1.45 1.45 0 0 0-.28-.33c.18 0 .34-.03.47-.07a.61.61 0 0 0 .31-.33c.1-.27 0-.7-.34-1.17-.35-.46-.94-1-1.8-1.52-.62-.4-.98-.87-1.14-1.4a3.13 3.13 0 0 1-.02-1.64A9.76 9.76 0 0 1 7.64 11c.1-.07.03.13-.41.97-.4.75-1.14 2.5-.12 3.86a8.12 8.12 0 0 1 .64-2.88c.57-1.28 1.75-3.5 1.84-5.27l.29.2c.22.14.38.34.59.47.2.2.48.33.87.33l.11.01c.42 0 .73-.13 1-.27.3-.13.52-.33.74-.4.47-.13.84-.4 1.05-.7zm2.19 8.96c.03.6.34 1.25.88 1.38.59.13 1.43-.34 1.79-.77h.21c.32-.02.58 0 .85.26.2.2.3.53.4.88.08.4.15.78.4 1.06.49.53.65.91.64 1.14v.02-.02c-.02.27-.19.4-.5.6-.63.4-1.75.71-2.46 1.57a3.1 3.1 0 0 1-2.04 1.19 1.5 1.5 0 0 1-1.57-.9c-.21-.4-.12-1.03.05-1.7.18-.66.43-1.34.46-1.89.04-.71.08-1.33.2-1.81.12-.47.3-.8.64-.99l.05-.02zm-10.82.05h.01l.16.01c.37.06.7.34 1.02.76l.91 1.66c.25.53.76 1.07 1.2 1.64.43.6.76 1.13.72 1.57-.05.75-.48 1.15-1.12 1.3a3.7 3.7 0 0 1-2.4-.47c-.97-.53-2.12-.46-2.85-.6-.37-.06-.61-.2-.73-.4-.1-.2-.11-.6.13-1.23.11-.34.03-.76-.03-1.12-.05-.4-.08-.71.04-.94.16-.34.4-.4.7-.53.29-.14.63-.2.9-.47h.01c.26-.27.45-.6.67-.84.19-.2.38-.34.66-.34zm7.16-9.08c-.43.2-.94.54-1.49.54-.54 0-.97-.27-1.28-.47l-.37-.33c-.16-.14-.14-.33-.07-.33.1.01.12.13.2.2.1.06.21.2.35.33.3.2.68.47 1.17.47.49 0 1.05-.27 1.4-.47l.65-.47c.15-.13.15-.26.28-.26.12.01.03.13-.15.33a8.1 8.1 0 0 1-.69.47zM11.7 5.66v-.02c0-.02.01-.04.03-.05.07-.04.18-.03.26 0 .06 0 .16.07.15.14 0 .05-.09.06-.14.06-.05 0-.09-.04-.14-.06-.05-.02-.14-.01-.16-.07zm-.55 0c-.02.06-.12.05-.17.07-.05.02-.08.07-.14.07-.05 0-.13-.02-.13-.07-.01-.07.08-.14.15-.14.08-.03.18-.04.25 0 .02 0 .04.03.03.05v.02z"/></svg>