<svg xmlns="http://www.w3.org/2000/svg" xml:space="preserve" viewBox="0 0 24 24"><path d="M13.9 12.7c-.4 0 .1.2.6.3.1-.1.3-.2.4-.3h-1zm2.1-.5c.1-.4.4-.7.5-1.1-.1.3-.2.5-.3.7-.8.5-.1-.3 0-.6-.8 1.1-.1.7-.2 1zm.8-2.1c0-.7-.1-.5-.2-.2.1 0 .1.5.2.2zM12.4.3c.2 0 .4.1.4.1.2 0 .3-.1-.4-.1m.4.1h-.1.1m6.6 10c0 .6-.2.9-.4 1.5l-.4.2c-.3.5 0 .3-.2.8-.4.4-1.3 1.2-1.6 1.3-.2 0 .1-.2.2-.3-.6.4-.5.6-1.4.9v-.1c-2.2 1-5.3-1-5.2-3.9 0 .2-.1.1-.1.2-.1-1.5.7-2.9 2-3.5 1.2-.7 2.7-.5 3.8.4-1.3-1.8-4.5-1.6-5.4.3-.6.4-.7 1.5-.9 1.6-.4 2.6.7 3.7 2.4 5.1.3.2.1.2.1.4-.6-.3-1.1-.7-1.5-1.2.2.3.5.7.8.9-.6-.2-1.3-1.3-1.5-1.3.9 1.7 3.8 2.9 5.3 2.3-.8.1-1.6 0-2.3-.3-.3-.2-.8-.5-.7-.6 2 .8 4.2.5 5.9-.8.4-.4.9-.9 1.1-.9-.2.3 0 .2-.1.4.4-.7-.2-.3.5-1.2l.2.3c-.1-.6.7-1.3.7-2.3.2-.3.2.3 0 1 .3-.7.1-.9.1-1.5.1.2.2.4.2.6-.2-.7.2-1.2.3-1.6-.1-.1-.3.3-.3-.5 0-.4.1-.2.1-.3-.1-.1-.3-.3-.4-.9.1-.1.2.3.3.3-.1-.4-.2-.8-.2-1.1-.3-.7-.1.1-.4-.3-.3-1.1.3-.2.3-.7.5.8.8 2 1 2.5-.1-.6-.3-1.2-.5-1.8.2.1-.3-1.2.2-.4-.6-1.9-1.9-3.4-3.7-4.4.2.3.4.5.3.5-.8-.5-.6-.5-.7-.7-.6-.2-.6 0-1.1 0C15 .7 14.8.8 13.8.4l.1.2c-.8-.2-.9.1-1.7 0-.1 0 .3-.1.5-.2-.7.1-.7-.1-1.4 0l.6-.3c-.6 0-1.4.3-1.2.1C9.7.7 8 1.3 7 2.2V2c-.4.5-2 1.6-2.1 2.3h-.1c-.4.4-.6.9-.7 1.3-.3.5-.5.2-.4.3-.6 1.2-.9 2.2-1.2 3.1.2.3 0 1.6.1 2.8-.3 5.5 3.8 10.8 8.4 12 .7.2 1.6.2 2.5.2-1-.3-1.1-.1-2.1-.5-.7-.3-.9-.7-1.3-1.1l.2.4c-1-.3-.6-.4-1.4-.7l.1-.3c-.3 0-.8-.5-1-.8h-.3c-.4-.5-.6-.9-.6-1.2L7 20c-.1-.2-1.5-1.9-.8-1.5-.1-.1-.3-.2-.5-.5l.1-.2c-.3-.4-.6-1-.6-1.2.2.2.3.3.4.3-.9-2.2-.9-.1-1.6-2.2h.2c-.1-.2-.2-.3-.3-.5l.1-.6c-.6-.7-.2-3.1-.1-4.4.1-.6.5-1.1.9-2h-.2C5 6.5 7 4.3 7.9 4.4c.4-.5-.1 0-.2-.1 1-1 1.3-.7 1.9-.9.7-.4-.6.2-.3-.2 1.2-.3.9-.7 2.4-.8.2.1-.4.1-.5.3C14.6 1.3 19 4 19.3 8.1h.1c0 .9.1 1.8-.2 2.7l.2-.4zm-9.9 2.8-.1.3c.3.4.5.7.8 1-.1-.4-.3-.6-.7-1.3m.7 0c-.1-.1-.2-.3-.3-.5.1.3.3.6.4.9l-.1-.4m10.9-2.4-.1.2c-.1.8-.3 1.5-.7 2.2.4-.7.7-1.5.8-2.4M12.4.1c.3-.1.7 0 1-.1-.4 0-.7.1-1.1.1h.1M3 5.1c0 .6-.4.8.1.4.3-.6-.1-.1-.1-.4zm-.6 2.7c.1-.4.1-.6.2-.8-.4.4-.2.5-.2.8z"/></svg>