<svg viewBox="0 0 24 24" xmlns="http://www.w3.org/2000/svg"><path d="M17.61.46a3.41 3.41 0 0 0-3.41 3.4 3.41 3.41 0 0 0 3.41 3.42 3.41 3.41 0 0 0 3.41-3.42 3.41 3.41 0 0 0-3.41-3.4zM12.92.8c-4-.02-7.78 2.14-9.77 5.65a4.5 4.5 0 0 1 .26 0 4.92 4.92 0 0 1 2.58.73 8.32 8.32 0 0 1 6.7-3.58A4.94 4.94 0 0 1 13.72.83a11 11 0 0 0-.8-.03zm9.23 5a4.92 4.92 0 0 1-1.92 2.24 8.36 8.36 0 0 1-.27 8.3 4.89 4.89 0 0 1 1.63 2.54 11.16 11.16 0 0 0 .56-13.09zM3.4 7.92A3.41 3.41 0 0 0 0 11.34a3.41 3.41 0 0 0 3.41 3.41 3.41 3.41 0 0 0 3.41-3.4 3.41 3.41 0 0 0-3.41-3.42zm2.03 7.87a4.9 4.9 0 0 1-2.92.36 11.1 11.1 0 0 0 8 6.7 11.23 11.23 0 0 0 2.42.24 4.88 4.88 0 0 1-1-2.85 8.48 8.48 0 0 1-.84-.13 8.3 8.3 0 0 1-5.66-4.32zm11.4.93a3.41 3.41 0 0 0-3.4 3.4 3.41 3.41 0 0 0 3.4 3.42 3.41 3.41 0 0 0 3.41-3.41 3.41 3.41 0 0 0-3.4-3.41z"/></svg>