<svg viewBox="0 0 24 24" xmlns="http://www.w3.org/2000/svg"><path d="M11.39.6c-1.01 2.5-1.63 4.12-2.76 6.53.7.74 1.55 1.6 2.93 2.56A12.07 12.07 0 0 1 8.3 7.83 310.05 310.05 0 0 1 0 23.39c3.61-2.08 6.41-3.37 9.02-3.86A6.61 6.61 0 0 1 8.85 18v-.12c.06-2.31 1.26-4.1 2.69-3.97 1.43.12 2.53 2.1 2.48 4.4a6.52 6.52 0 0 1-.15 1.25c2.58.5 5.35 1.79 8.92 3.84l-1.93-3.57c-.95-.73-1.93-1.68-3.94-2.7 1.38.35 2.37.76 3.14 1.22C13.97 7.01 13.48 5.5 11.4.61zm11.5 20.76v-.62h-.23v-.09h.57v.09h-.24v.62h.33v-.7h.14l.17.5.04.1a2.26 2.26 0 0 1 .03-.11l.17-.5H24v.71h-.1v-.6l-.2.6h-.08l-.2-.6v.6h-.1"/></svg>